<svg viewBox="0 0 88 48" xmlns="http://www.w3.org/2000/svg">
  <defs>
    <filter x="-13.1%" y="-26.2%" width="126.2%" height="152.5%" filterUnits="objectBoundingBox" id="a">
      <feOffset dx="1" dy="1" in="SourceAlpha" result="shadowOffsetOuter1"/>
      <feGaussianBlur stdDeviation="2" in="shadowOffsetOuter1" result="shadowBlurOuter1"/>
      <feColorMatrix values="0 0 0 0 0 0 0 0 0 0 0 0 0 0 0 0 0 0 0.5 0" in="shadowBlurOuter1" result="shadowMatrixOuter1"/>
      <feMerge>
        <feMergeNode in="shadowMatrixOuter1"/>
        <feMergeNode in="SourceGraphic"/>
      </feMerge>
    </filter>
  </defs>
  <g filter="url(#a)" transform="translate(3 3)" fill-rule="nonzero" fill="none">
    <path d="M79.956 5.89v-.308c-.088.044-.088-.044-.088-.087-.22-1.143-.66-2.154-1.408-3.033C77.624 1.45 76.568.747 75.336.308 74.719.088 74.016 0 73.356 0H6.468C5.28 0 4.18.352 3.169.967A6.518 6.518 0 0 0 .571 3.912a6.033 6.033 0 0 0-.484 1.583c0 .087 0 .087-.088.131v.308h.044L0 5.978v28.044l.044.044c0 .044 0 .044-.044 0v.352c.088-.044.088 0 .088.087.176 1.011.572 1.89 1.144 2.726a5.972 5.972 0 0 0 1.98 1.802c.836.527 1.716.791 2.685.923.264.044.528.044.792.044h66.666c1.496 0 2.86-.484 4.049-1.407.88-.659 1.496-1.494 1.98-2.461.264-.528.44-1.055.528-1.627 0-.087 0-.087.088-.131v-.352h-.044l.044-.044V5.934c-.088 0-.088 0-.044-.044-.044 0-.044 0 0 0z" fill="#FBBF14"/>
    <path d="M0 6s.044 0 0 0c.044.1 0 .1 0 .1V6zm80 .1c-.044 0-.044 0 0 0-.044-.1 0-.1 0-.1v.1z" fill="#010101"/>
    <path d="M46 19.535v-7.266c0-.224.045-.269.267-.269.49 0 .98 0 1.426.224.357.18.49.449.49.808v12.916c0 .718-.4.987-.935 1.121-.357.09-.669.045-1.025.045-.178 0-.223-.045-.223-.224v-7.355zm16.708 1.66v-5.831c0-.538.223-.583.49-.628.401-.045.624.134.757.538.045.135.045.314.045.448v11.616c0 .404-.09.539-.401.628-.312.09-.535 0-.713-.269a.906.906 0 0 1-.178-.583v-5.92z" fill="#FBBF14"/>
    <path d="M29.424 18.24c.175-.78.219-1.518.35-2.3.087-.607.13-1.17.218-1.778.088-.564.175-1.128.219-1.693.043-.433.087-.867.174-1.301.044-.478.088-.912.175-1.389.087-.434.131-.911.175-1.345.043-.39 0-.39.393-.39h6.683c.219 0 .262.043.262.26v21.349c0 .173-.043.26-.218.26H33.66c-.218 0-.262-.043-.262-.26V18.024h-.043c-.175.91-.306 1.779-.48 2.69-.132.781-.307 1.606-.438 2.387-.13.78-.262 1.605-.393 2.386-.13.694-.262 1.389-.35 2.083-.13.738-.261 1.432-.392 2.17-.044.173-.088.217-.262.217h-2.97c-.088 0-.176 0-.176-.13a91.74 91.74 0 0 0-.611-3.385c-.218-1.172-.437-2.3-.655-3.472-.219-1.215-.393-2.43-.656-3.645-.087-.433-.13-.867-.262-1.345v11.716c0 .217-.043.304-.262.304h-4.28c-.219 0-.263-.043-.263-.26V8.39c0-.173.044-.26.219-.26h6.159c.131 0 .218 0 .262.174.131.911.306 1.822.48 2.733.175.999.35 1.953.525 2.951.13.825.262 1.606.393 2.43.262.564.393 1.215.48 1.823zm11.445.565V8.304c0-.26.087-.304.306-.304h7.032c1.005 0 2.01.043 2.97.434.787.347 1.573.738 2.098 1.475.349.478.524 1.042.655 1.65.13.737.087 1.431.087 2.169v11.716c0 1.041-.35 1.996-1.18 2.69-.567.477-1.266.781-1.965.955-.96.26-1.966.39-2.97.39-2.272.087-4.5 0-6.771.044-.218 0-.175-.13-.175-.26-.087-3.429-.087-6.943-.087-10.458zm5.154-.174v7.117c0 .173.044.216.219.216.35 0 .655 0 1.004-.043.525-.13.918-.39.918-1.085V12.34c0-.39-.175-.607-.48-.78-.438-.218-.918-.174-1.399-.218-.218 0-.262.044-.262.26v7.03zm16.032-5.684c.83-.564 1.703-1.085 2.664-1.345 1.223-.304 2.272-.044 3.233.737.699.564 1.048 1.302 1.048 2.213V27.44c0 1.215-.961 1.996-1.878 2.17-.656.13-1.31.13-1.966.086-.655-.043-1.267-.26-1.878-.477a15.715 15.715 0 0 0-1.53-.477c-.218-.044-.305.043-.392.173-.131.26-.219.52-.262.781-.044.13-.088.174-.219.174h-4.324c-.131 0-.175-.044-.175-.13V8.347c0-.26.044-.304.306-.304h4.98c.305 0 .305 0 .305.348.088 1.475.088 2.994.088 4.556zm.35 7.29v5.684c0 .217.043.39.174.564.175.26.437.347.699.26.305-.086.393-.216.393-.607V14.9c0-.173 0-.303-.044-.434-.13-.347-.35-.564-.742-.52-.263.043-.48.13-.48.607v5.685zm-49.361-1.302V8.304c0-.217.043-.26.262-.26h4.674c.218 0 .218.043.218.26v21.349c0 .217-.044.26-.262.26h-4.674c-.218 0-.262-.043-.262-.26.044-3.602.044-7.16.044-10.718z" fill="#273238"/>
  </g>
</svg>
