<svg width="256" height="29" viewBox="0 0 256 29" xmlns="http://www.w3.org/2000/svg">
  <g fill="none" fill-rule="evenodd">
    <text font-family="Montserrat-Regular, Montserrat" font-size="28" letter-spacing=".7" fill="#E6B91E">
      <tspan x="142" y="27">MOVIES</tspan>
    </text>
    <g fill-rule="nonzero">
      <path d="M67.844 8.424c.232.239.357.559.346.889v17.085c.01.366-.13.72-.387.985-.256.265-.616.41-.988.4-.208 0-.416-.032-.614-.096a1.055 1.055 0 0 1-.471-.296L54.485 12.98v13.566c.01.331-.118.651-.356.886a1.23 1.23 0 0 1-.9.35 1.177 1.177 0 0 1-.887-.351 1.214 1.214 0 0 1-.341-.885V9.426a1.29 1.29 0 0 1 .406-.97c.25-.253.597-.39.956-.38.226-.001.45.041.659.124.19.073.357.194.484.352L65.7 22.995V9.313c-.01-.331.119-.652.357-.886a1.23 1.23 0 0 1 .9-.35 1.19 1.19 0 0 1 .886.347zm23.098 0c.244.266.372.615.358.973v10.808a7.99 7.99 0 0 1-1 4.003 7.212 7.212 0 0 1-2.761 2.774A7.888 7.888 0 0 1 83.578 28a8.034 8.034 0 0 1-4.006-.997 7.188 7.188 0 0 1-2.773-2.774 7.99 7.99 0 0 1-1-4.003V9.417c-.011-.366.137-.72.406-.973a1.44 1.44 0 0 1 1.029-.4c.362 0 .708.145.96.4.266.249.414.596.406.957V20.21a5.089 5.089 0 0 0 .688 2.634 4.95 4.95 0 0 0 4.29 2.462 5.171 5.171 0 0 0 2.545-.648 4.934 4.934 0 0 0 1.887-1.814c.472-.799.714-1.71.7-2.634V9.401a1.411 1.411 0 0 1 .341-.973 1.23 1.23 0 0 1 .948-.4 1.25 1.25 0 0 1 .943.396zm22.013 17.333c.171.233.261.514.256.8.015.363-.134.714-.407.958a1.366 1.366 0 0 1-.93.364 1.287 1.287 0 0 1-1.115-.56l-5.56-7.306-5.432 7.294a1.32 1.32 0 0 1-1.114.588 1.193 1.193 0 0 1-.875-.352 1.085 1.085 0 0 1-.358-.8c.007-.34.128-.667.346-.93l5.864-7.858-5.892-7.797a1.296 1.296 0 0 1 .118-1.758c.251-.255.598-.4.96-.4.212.001.423.05.613.144.202.094.375.24.5.42l5.495 7.266 5.44-7.194c.24-.365.644-.596 1.086-.62.345.002.673.147.903.4.25.22.397.531.407.861-.01.29-.11.569-.285.8l-5.97 7.822 5.95 7.858zm20.638-17.333c.269.242.417.587.406.945.01.353-.138.693-.406.929-.276.23-.628.349-.988.336h-5.092v15.8c.007.36-.14.708-.406.957a1.588 1.588 0 0 1-2.09 0 1.287 1.287 0 0 1-.407-.957v-15.8h-5.08a1.412 1.412 0 0 1-.984-.348 1.22 1.22 0 0 1-.386-.945c-.011-.346.13-.68.386-.917.27-.237.623-.361.985-.348h13.074c.362-.013.716.112.988.348z" fill="#DCE2EB"/>
      <path d="M11.904 28.02a2.031 2.031 0 0 1-.216-1.306H2.444L16.182 2.575l4.51 7.916L22 8.181l-3.932-6.916C17.958 1.065 17.294 0 16.15 0c-.518 0-1.26.224-1.862 1.281L.37 25.713c-.119.212-.693 1.322-.123 2.307.261.447.815.98 2.037.98h11.656c-1.214 0-1.776-.525-2.037-.98z" fill="#00C58E"/>
      <path d="M38.588 24.804L27.231 5.246C27.114 5.04 26.46 4 25.318 4c-.514 0-1.25.214-1.85 1.242L22 7.757l1.307 2.247 2.023-3.5 11.235 19.273h-4.272c.055.319.024.646-.09.95a1.197 1.197 0 0 1-.088.193l-.037.071C31.504 27.95 30.262 28 30.02 28h6.684c.247 0 1.485-.051 2.06-1.009.254-.435.436-1.166-.175-2.187z" fill="#2F8875"/>
      <path d="M32.754 27.954l.038-.074c.036-.064.066-.132.09-.201a1.93 1.93 0 0 0 .091-.985 2.99 2.99 0 0 0-.38-1.01l-8.776-15.353L22.477 8l-1.334 2.33-8.772 15.355c-.17.314-.285.656-.338 1.009a2.041 2.041 0 0 0 .206 1.317c.264.451.825.989 2.063.989h16.34c.26 0 1.527-.053 2.112-1.046zM22.476 12.66l8.021 14.033H14.46l8.017-14.033z" fill="#2F495E"/>
    </g>
  </g>
</svg>
