<svg viewBox="0 0 85 85" xmlns="http://www.w3.org/2000/svg" xmlns:xlink="http://www.w3.org/1999/xlink">
  <defs>
    <circle id="a" cx="42.5" cy="42.5" r="42.5"/>
  </defs>
  <g fill="none" fill-rule="evenodd">
    <mask id="b" fill="#fff">
      <use xlink:href="#a"/>
    </mask>
    <use fill="#FFF" xlink:href="#a"/>
    <g fill-rule="nonzero" mask="url(#b)">
      <path d="M72.536 91.613C65.903 89.289 54.25 87.53 54.25 63.308H31.697c0 24.223-11.653 25.981-18.287 28.305 0 16.476 24.461 16.982 28.674 18.518v.534s.328-.065.89-.236c.56.171.888.236.888.236v-.534c4.213-1.536 28.674-2.042 28.674-18.518z" fill="#F3D8B6"/>
      <path d="M54.25 63.308H42.855v47.156l.118-.035c.561.171.889.236.889.236v-.535c4.213-1.535 28.674-2.042 28.674-18.517-6.633-2.324-18.286-4.082-18.286-28.305z" fill="#EEC8A2"/>
      <g transform="translate(14.167 41)">
        <ellipse fill="#EDCEAE" transform="rotate(-69.249 49.818 7.01)" cx="49.818" cy="7.009" rx="6.025" ry="3.556"/>
        <ellipse fill="#F3DBC4" transform="rotate(69.249 5.74 7.009)" cx="5.739" cy="7.009" rx="6.025" ry="3.556"/>
      </g>
      <path d="M42.974 71.906c-9.744 0-17.181-8.127-20.514-14.22-3.333-6.095-5.64-27.927 1.54-37.577 7.03-9.45 18.974-4.864 18.974-4.864s11.943-4.585 18.973 4.864c7.18 9.65 4.872 31.482 1.539 37.576-3.333 6.094-10.77 14.221-20.512 14.221z" fill="#F3DBC4"/>
      <path d="M61.947 20.11c-7.03-9.45-18.973-4.865-18.973-4.865l-.119-.043v56.701c.04 0 .079.003.119.003 9.742 0 17.179-8.126 20.512-14.22 3.333-6.095 5.64-27.927-1.539-37.576z" fill="#EDCEAE"/>
      <path d="M84.961 110.596v14.339H.327v-14.339c0-10.725 6.128-20.077 14.32-24.994 2.132-1.283 6.945-2.618 9.469-3.24 2.1-.525 18.847 8.01 18.847 8.01S60.13 82.19 62.23 82.714c2.523.622 6.279 1.605 8.41 2.888C78.832 90.52 84.96 99.87 84.96 110.596z" fill="#545465"/>
      <path d="M70.64 85.602c-2.131-1.283-5.887-2.266-8.41-2.889-2.1-.524-19.267 7.659-19.267 7.659s-.155-.08-.437-.221v34.783h42.435v-14.338c0-10.725-6.129-20.077-14.321-24.994z" fill="#494857"/>
      <g>
        <path d="M59.34 81.085l-16.872 8.019-16.872-8.02c-4.028 1.882 3.642 13.15 5.196 12.601 3.84-1.354 11.676-3.533 11.676-3.533s7.836 2.179 11.676 3.533c1.554.549 9.224-10.719 5.195-12.6z" fill="#FFF"/>
        <path d="M59.34 81.085l-16.872 8.019-.117-.056v1.137l.117-.033s7.836 2.179 11.676 3.534c1.554.548 9.224-10.72 5.195-12.602z" fill="#DEDDE0"/>
      </g>
      <g>
        <path d="M62.763 16.79c-.76.027-4.323-10.866-13.826-8.437-6.524 1.669-7.348 2.576-9.897 3.285-10.352-3.129-20.252 5.023-19.885 12.665.62 12.868-1.681 12.671-.103 17.166a312.625 312.625 0 0 0 2.98 8.125s.35 1.237 1.051-5.85c.701-7.088-1.656-10.892 3.92-10.892 18.461 0-6.933 7.071 4.91 7.071 11.753 0 20.838-9.504 26.37-10.195 5.531-.692 3.219 6.928 3.92 14.016.7 7.087 1.051 5.85 1.051 5.85s3.14-3.371 2.98-8.125c-.18-5.364 2.242-24.889-3.47-24.68z" fill="#E1A98C"/>
        <path d="M62.763 16.79c-.76.027-4.323-10.866-13.826-8.436-3.1.792-4.912 1.413-6.235 1.922V37.45c6.603-2.867 11.886-7.26 15.581-7.721 5.532-.692 3.219 6.928 3.92 14.016.701 7.087 1.052 5.85 1.052 5.85s3.14-3.371 2.98-8.125c-.18-5.364 2.241-24.889-3.472-24.68z" fill="#D2987B"/>
      </g>
      <g transform="translate(14.167 41)">
        <ellipse fill="#EDCEAE" transform="rotate(-69.249 49.818 7.01)" cx="49.818" cy="7.009" rx="6.025" ry="3.556"/>
        <ellipse fill="#F3DBC4" transform="rotate(69.249 5.74 7.009)" cx="5.739" cy="7.009" rx="6.025" ry="3.556"/>
      </g>
    </g>
    <circle fill="#545455" opacity=".36" cx="42.5" cy="42.5" r="42.5"/>
  </g>
</svg>
